<svg xmlns="http://www.w3.org/2000/svg" viewBox="0 0 64 64" width="64" height="64">
  <defs>
    <linearGradient id="g" x1="0" x2="1" y1="0" y2="1">
      <stop offset="0" stop-color="#A5D6A7"/>
      <stop offset="1" stop-color="#FFAB91"/>
    </linearGradient>
  </defs>
  <rect width="64" height="64" rx="12" fill="url(#g)" />
  <g transform="translate(8,8) scale(0.75)">
    <path d="M20 6c-4 0-8 3-10 7-1 2-2 5 0 7 2 2 5 2 8 1 2-1 4-3 6-2 3 1 4 5 6 7 2 2 6 0 6-3 0-4-4-9-7-12-3-3-7-5-9-5z" fill="#fff" opacity="0.95"/>
  </g>
</svg>
